<?xml version="1.0" encoding="iso-8859-1"?>
<!-- Uploaded to: SVG Repo, www.svgrepo.com, Generator: SVG Repo Mixer Tools -->
<svg fill="#000000" height="800px" width="800px" version="1.1" id="Layer_1" xmlns="http://www.w3.org/2000/svg" xmlns:xlink="http://www.w3.org/1999/xlink" 
	 viewBox="0 0 512 512" xml:space="preserve">
<g transform="translate(1 1)">
	<g>
		<g>
			<path d="M485.4-1H109.933c-14.507,0-25.6,11.093-25.6,25.6v247.467h-76.8C2.413,272.067-1,275.48-1,280.6v179.2
				c0,28.16,23.04,51.2,51.2,51.2h409.6c28.16,0,51.2-23.04,51.2-51.2V24.6C511,10.093,499.907-1,485.4-1z M16.067,459.8V289.133
				h68.267V459.8c0,18.773-15.36,34.133-34.133,34.133S16.067,478.573,16.067,459.8z M493.933,459.8
				c0,18.773-15.36,34.133-34.133,34.133H88.6c1.642-2.007,3.158-4.137,4.541-6.361c4.799-7.378,7.759-16.046,8.198-25.351
				c0.04-0.804,0.062-1.611,0.062-2.422V280.6v-256c0-5.12,3.413-8.533,8.533-8.533H485.4c5.12,0,8.533,3.413,8.533,8.533V459.8z"/>
			<path d="M272.067,41.667H135.533c-5.12,0-8.533,3.413-8.533,8.533v162.133c0,5.12,3.413,8.533,8.533,8.533h136.533
				c5.12,0,8.533-3.413,8.533-8.533V50.2C280.6,45.08,277.187,41.667,272.067,41.667z M263.533,203.8H144.067V58.733h119.467V203.8z
				"/>
			<path d="M459.8,41.667H323.267c-5.12,0-8.533,3.413-8.533,8.533v162.133c0,5.12,3.413,8.533,8.533,8.533H459.8
				c5.12,0,8.533-3.413,8.533-8.533V50.2C468.333,45.08,464.92,41.667,459.8,41.667z M451.267,203.8H331.8V58.733h119.467V203.8z"/>
			<path d="M272.067,246.467H135.533c-5.12,0-8.533,3.413-8.533,8.533s3.413,8.533,8.533,8.533h136.533
				c5.12,0,8.533-3.413,8.533-8.533S277.187,246.467,272.067,246.467z"/>
			<path d="M272.067,289.133H135.533c-5.12,0-8.533,3.413-8.533,8.533s3.413,8.533,8.533,8.533h136.533
				c5.12,0,8.533-3.413,8.533-8.533S277.187,289.133,272.067,289.133z"/>
			<path d="M272.067,331.8H135.533c-5.12,0-8.533,3.413-8.533,8.533c0,5.12,3.413,8.533,8.533,8.533h136.533
				c5.12,0,8.533-3.413,8.533-8.533C280.6,335.213,277.187,331.8,272.067,331.8z"/>
			<path d="M272.067,374.467H135.533c-5.12,0-8.533,3.413-8.533,8.533s3.413,8.533,8.533,8.533h136.533
				c5.12,0,8.533-3.413,8.533-8.533S277.187,374.467,272.067,374.467z"/>
			<path d="M272.067,417.133H135.533c-5.12,0-8.533,3.413-8.533,8.533s3.413,8.533,8.533,8.533h136.533
				c5.12,0,8.533-3.413,8.533-8.533S277.187,417.133,272.067,417.133z"/>
			<path d="M459.8,246.467H323.267c-5.12,0-8.533,3.413-8.533,8.533s3.413,8.533,8.533,8.533H459.8c5.12,0,8.533-3.413,8.533-8.533
				S464.92,246.467,459.8,246.467z"/>
			<path d="M459.8,289.133H323.267c-5.12,0-8.533,3.413-8.533,8.533s3.413,8.533,8.533,8.533H459.8c5.12,0,8.533-3.413,8.533-8.533
				S464.92,289.133,459.8,289.133z"/>
			<path d="M459.8,331.8H323.267c-5.12,0-8.533,3.413-8.533,8.533c0,5.12,3.413,8.533,8.533,8.533H459.8
				c5.12,0,8.533-3.413,8.533-8.533C468.333,335.213,464.92,331.8,459.8,331.8z"/>
			<path d="M459.8,374.467H323.267c-5.12,0-8.533,3.413-8.533,8.533s3.413,8.533,8.533,8.533H459.8c5.12,0,8.533-3.413,8.533-8.533
				S464.92,374.467,459.8,374.467z"/>
			<path d="M459.8,417.133H323.267c-5.12,0-8.533,3.413-8.533,8.533s3.413,8.533,8.533,8.533H459.8c5.12,0,8.533-3.413,8.533-8.533
				S464.92,417.133,459.8,417.133z"/>
			<path d="M186.733,459.8h-51.2c-5.12,0-8.533,3.413-8.533,8.533s3.413,8.533,8.533,8.533h51.2c5.12,0,8.533-3.413,8.533-8.533
				S191.853,459.8,186.733,459.8z"/>
			<path d="M408.6,459.8h-85.333c-5.12,0-8.533,3.413-8.533,8.533s3.413,8.533,8.533,8.533H408.6c5.12,0,8.533-3.413,8.533-8.533
				S413.72,459.8,408.6,459.8z"/>
		</g>
	</g>
</g>
</svg>